<?xml version="1.0" encoding="utf-8"?>
<!-- Generator: Adobe Illustrator 26.0.0, SVG Export Plug-In . SVG Version: 6.00 Build 0)  -->
<svg version="1.1" id="Layer_1" xmlns="http://www.w3.org/2000/svg" xmlns:xlink="http://www.w3.org/1999/xlink" x="0px" y="0px"
	 viewBox="0 0 1000 1000" style="enable-background:new 0 0 1000 1000;" xml:space="preserve">
<style type="text/css">
	.st0{fill:#1B3361;}
	.st1{fill:#1B5EAB;}
	.st2{fill:#133051;}
	.st3{opacity:0.85;fill:#E5F1F0;}
</style>
<g>
	<polygon class="st0" points="323.23,662.62 303.09,696.58 282.64,662.62 272.18,662.62 272.18,717.26 284.04,717.26 284.04,685.18 
		300.05,711.49 305.74,711.49 321.83,684.48 321.9,717.26 333.77,717.26 333.61,662.62 	"/>
	<path class="st0" d="M363.9,662.62l-24.35,54.64h12.96l4.84-11.71h25.37l4.84,11.71h13.27l-24.43-54.64H363.9z M361.4,695.95
		l8.66-20.92l8.67,20.92H361.4z"/>
	<path class="st0" d="M442.78,665.04c-3.57-1.61-7.77-2.42-12.61-2.42h-23.65v54.64h12.65V702.2h11.01c4.84,0,9.04-0.79,12.61-2.38
		c3.56-1.59,6.31-3.88,8.24-6.87c1.92-2.99,2.89-6.49,2.89-10.5c0-4.06-0.96-7.57-2.89-10.54
		C449.09,668.94,446.34,666.65,442.78,665.04z M438.14,689.43c-1.98,1.64-4.87,2.46-8.66,2.46h-10.3v-18.97h10.3
		c3.8,0,6.69,0.82,8.66,2.46c1.98,1.64,2.97,3.99,2.97,7.06C441.1,685.47,440.11,687.79,438.14,689.43z"/>
	<polygon class="st1" points="475.53,662.62 462.88,662.62 462.88,717.26 502.93,717.26 502.93,706.96 475.53,706.96 	"/>
	<polygon class="st1" points="522.6,694.47 547.97,694.47 547.97,684.63 522.6,684.63 522.6,672.77 551.33,672.77 551.33,662.62 
		510.03,662.62 510.03,717.26 552.34,717.26 552.34,707.11 522.6,707.11 	"/>
	<path class="st1" d="M579.58,662.62l-24.35,54.64h12.96l4.84-11.71h25.37l4.84,11.71h13.27l-24.43-54.64H579.58z M577.08,695.95
		l8.66-20.92l8.67,20.92H577.08z"/>
	<path class="st1" d="M662.76,666.02c-4.56-2.26-9.8-3.4-15.73-3.4H622.2v54.64h24.82c5.93,0,11.17-1.13,15.73-3.4
		c4.55-2.26,8.09-5.45,10.61-9.56c2.52-4.11,3.79-8.9,3.79-14.36c0-5.46-1.26-10.25-3.79-14.36
		C670.85,671.47,667.31,668.28,662.76,666.02z M659.48,702.31c-3.25,3.04-7.61,4.57-13.08,4.57h-11.55V673h11.55
		c5.46,0,9.82,1.52,13.08,4.57c3.25,3.05,4.88,7.17,4.88,12.37C664.36,695.15,662.73,699.27,659.48,702.31z"/>
	<path class="st1" d="M718.14,687.91c-2.65-0.99-6.06-1.98-10.23-2.97c-4.01-0.88-6.99-1.78-8.94-2.69
		c-1.95-0.91-2.93-2.3-2.93-4.18c0-1.87,0.85-3.38,2.54-4.53c1.69-1.14,4.31-1.72,7.84-1.72c5.05,0,10.1,1.43,15.14,4.29l3.9-9.6
		c-2.5-1.56-5.41-2.76-8.74-3.59c-3.33-0.83-6.74-1.25-10.23-1.25c-5,0-9.23,0.75-12.69,2.26c-3.46,1.51-6.05,3.55-7.77,6.13
		c-1.72,2.58-2.58,5.45-2.58,8.63c0,3.64,0.95,6.56,2.85,8.74c1.9,2.19,4.18,3.77,6.83,4.76s6.06,1.98,10.23,2.97
		c2.71,0.62,4.85,1.2,6.44,1.72c1.59,0.52,2.89,1.21,3.9,2.07c1.01,0.86,1.52,1.94,1.52,3.24c0,1.77-0.86,3.19-2.58,4.25
		s-4.37,1.6-7.96,1.6c-3.23,0-6.45-0.52-9.68-1.56c-3.23-1.04-6.01-2.42-8.35-4.14l-4.29,9.52c2.45,1.87,5.69,3.4,9.72,4.57
		c4.03,1.17,8.21,1.76,12.53,1.76c5,0,9.24-0.75,12.72-2.26c3.49-1.51,6.1-3.55,7.85-6.13c1.74-2.58,2.61-5.43,2.61-8.55
		c0-3.64-0.95-6.53-2.85-8.66C723.07,690.46,720.8,688.9,718.14,687.91z"/>
	<path class="st2" d="M505.11,281.91c1.27,0.05,2.54,0.12,3.81,0.22C507.65,282.04,506.38,281.97,505.11,281.91z"/>
	<path class="st2" d="M509.45,282.18c1.09,0.09,2.17,0.2,3.25,0.31C511.62,282.38,510.54,282.27,509.45,282.18z"/>
	<path class="st2" d="M513.96,282.64c1.13,0.14,2.25,0.29,3.37,0.46C516.22,282.93,515.09,282.78,513.96,282.64z"/>
	<path class="st2" d="M522.7,284.05c0.68,0.14,1.35,0.29,2.03,0.43C524.05,284.34,523.37,284.19,522.7,284.05z"/>
	<path class="st2" d="M518.7,283.32c0.76,0.12,1.52,0.26,2.27,0.4C520.22,283.58,519.46,283.45,518.7,283.32z"/>
	<path class="st2" d="M527.75,285.2c0.38,0.1,0.77,0.19,1.15,0.29C528.52,285.39,528.13,285.3,527.75,285.2z"/>
	<path class="st2" d="M608.23,360.88c0.13,0.42,0.26,0.83,0.39,1.25C608.49,361.71,608.36,361.29,608.23,360.88z"/>
	<path class="st2" d="M500.21,281.8c1.3,0,2.6,0.03,3.89,0.07C502.8,281.83,501.51,281.8,500.21,281.8z"/>
	<path class="st2" d="M609.11,363.79c0.19,0.68,0.38,1.36,0.56,2.04C609.49,365.15,609.31,364.47,609.11,363.79z"/>
	<path class="st2" d="M536.49,287.77C536.49,287.77,536.49,287.77,536.49,287.77C536.49,287.77,536.49,287.77,536.49,287.77z"/>
	<path class="st2" d="M609.94,366.82c0.27,1.07,0.53,2.15,0.78,3.23C610.48,368.96,610.22,367.89,609.94,366.82z"/>
	<path class="st2" d="M610.85,370.63c0.22,1,0.43,2,0.62,3.01C611.28,372.64,611.07,371.63,610.85,370.63z"/>
	<path class="st2" d="M461.5,548.07c-0.02-0.03-0.03-0.05-0.05-0.08c-9-14.18-18.62-29.45-27.76-44.16c-3.11-5-6.15-9.92-9.1-14.73
		l-0.01,0.01c31.44,51.17,74.08,116.98,74.66,117.88l0.92,1.42c0,0-16.71-25.78-37.03-57.78
		C462.59,549.79,462.05,548.93,461.5,548.07z"/>
	<path class="st2" d="M613.52,395.15c0,10.76-1.53,21.15-4.33,31.01c-1.72,6.07-3.61,12.1-6.58,17.55
		c-10.32,18.89-31.67,53.47-52.22,86.09c-25.74,40.85-50.22,78.62-50.22,78.62l0.92-1.42c0.78-1.21,78.73-121.5,101.5-163.21
		c3.11-5.7,5.04-12.08,6.61-17.6c2.87-10.11,4.33-20.55,4.33-31.02c0-7.24-0.69-14.31-1.99-21.17c0.45,2.36,0.82,4.75,1.12,7.17
		C613.23,385.75,613.52,390.41,613.52,395.15z"/>
	<path class="st2" d="M470.06,455.18c0.69,0.35,1.4,0.68,2.1,1.01c0.15,0.07,0.29,0.13,0.44,0.2c0.7,0.31,1.4,0.62,2.1,0.91
		c0.05,0.02,0.09,0.04,0.14,0.05c0.76,0.31,1.53,0.61,2.31,0.89c2.61,0.95,5.3,1.74,8.05,2.36c0.13,0.03,0.25,0.06,0.38,0.09
		c0.81,0.18,1.63,0.34,2.46,0.49c0.18,0.03,0.36,0.07,0.54,0.1c0.81,0.14,1.62,0.27,2.44,0.38c0.18,0.03,0.37,0.05,0.55,0.07
		c0.84,0.11,1.67,0.2,2.52,0.28c0.11,0.01,0.23,0.02,0.34,0.03c1.89,0.16,3.8,0.25,5.73,0.25c0.81,0,1.61-0.02,2.41-0.05
		c0.12,0,0.24,0,0.36-0.01c0.72-0.03,1.43-0.08,2.14-0.13c0.28-0.02,0.56-0.04,0.84-0.06c0.69-0.06,1.39-0.13,2.07-0.21
		c0.26-0.03,0.51-0.06,0.76-0.1c2.29-0.29,4.54-0.7,6.75-1.21c0.22-0.05,0.44-0.1,0.66-0.15c0.66-0.16,1.31-0.34,1.97-0.52
		c0.27-0.08,0.54-0.15,0.81-0.23c0.65-0.19,1.3-0.38,1.94-0.59c0.2-0.06,0.39-0.13,0.58-0.2c2.12-0.71,4.2-1.52,6.22-2.43
		c0.26-0.11,0.51-0.23,0.77-0.35c0.59-0.27,1.17-0.55,1.74-0.84c0.26-0.13,0.52-0.27,0.78-0.4c0.58-0.3,1.17-0.61,1.74-0.92
		c0.08-0.04,0.16-0.09,0.24-0.14c1.24-0.7,2.46-1.43,3.65-2.2c0.2-0.13,0.4-0.25,0.59-0.38c0.53-0.35,1.05-0.71,1.56-1.07
		c0.29-0.2,0.58-0.4,0.86-0.61c0.51-0.37,1.01-0.74,1.51-1.13c0.44-0.34,0.87-0.67,1.3-1.02c0.39-0.31,0.77-0.63,1.15-0.96
		c0.31-0.26,0.61-0.53,0.92-0.79c0.58-0.51,1.15-1.02,1.71-1.55c0.29-0.27,0.57-0.54,0.85-0.81c0.36-0.35,0.71-0.7,1.06-1.05
		c0.48-0.49,0.96-0.99,1.42-1.49c0.33-0.36,0.66-0.73,0.99-1.1c0.27-0.31,0.54-0.62,0.81-0.94c0.48-0.56,0.94-1.12,1.4-1.7
		c0.27-0.34,0.54-0.68,0.81-1.03c0.29-0.38,0.58-0.76,0.86-1.14c0.42-0.57,0.83-1.15,1.24-1.74c0.26-0.38,0.51-0.76,0.76-1.14
		c0.26-0.39,0.51-0.78,0.75-1.18c0.33-0.53,0.65-1.06,0.97-1.59c0.28-0.47,0.55-0.95,0.82-1.42c0.21-0.38,0.42-0.77,0.63-1.15
		c0.35-0.67,0.7-1.34,1.03-2.01c0.18-0.36,0.34-0.73,0.51-1.09c0.23-0.49,0.45-0.99,0.67-1.49c0.16-0.37,0.33-0.75,0.49-1.12
		c0.29-0.71,0.57-1.42,0.84-2.14c0.14-0.37,0.27-0.73,0.4-1.1c0.26-0.74,0.52-1.49,0.76-2.24c0.1-0.33,0.2-0.66,0.3-1
		c0.19-0.62,0.36-1.24,0.53-1.87c0.09-0.32,0.18-0.64,0.26-0.97c0.21-0.82,0.4-1.66,0.57-2.49c0.07-0.32,0.13-0.65,0.2-0.98
		c0.16-0.83,0.31-1.66,0.45-2.5c0.04-0.25,0.07-0.51,0.11-0.76c0.11-0.78,0.21-1.57,0.3-2.35c0.03-0.28,0.06-0.56,0.09-0.83
		c0-0.02,0-0.04,0-0.07c-0.24,0.26-0.48,0.52-0.73,0.77c-3.62,33.37-31.88,59.34-66.21,59.34c-13.73,0-26.49-4.16-37.09-11.28
		l-0.44,0.44c2.33,1.57,4.77,3.01,7.29,4.29C469.97,455.13,470.02,455.15,470.06,455.18z"/>
	<path class="st2" d="M545.18,345.08c-0.64-0.58-1.29-1.14-1.95-1.69c-0.15-0.13-0.31-0.26-0.46-0.39
		c-0.68-0.56-1.38-1.11-2.09-1.64c-0.14-0.11-0.29-0.22-0.43-0.33c-0.73-0.54-1.47-1.07-2.22-1.58c-0.13-0.09-0.26-0.18-0.39-0.27
		c-0.78-0.52-1.57-1.03-2.37-1.52c-0.11-0.07-0.22-0.14-0.33-0.2c-0.83-0.5-1.68-0.99-2.53-1.45c-0.09-0.05-0.17-0.1-0.26-0.14
		c-0.89-0.48-1.79-0.94-2.7-1.38c-0.06-0.03-0.11-0.06-0.17-0.08c-0.95-0.46-1.92-0.9-2.9-1.31c-0.02-0.01-0.03-0.02-0.05-0.02
		c-8.04-3.4-16.89-5.28-26.17-5.28c-37.14,0-67.25,30.11-67.25,67.25c0,1.06,0.03,2.11,0.08,3.16c0.01,0.16,0.01,0.32,0.02,0.48
		c0.05,0.99,0.13,1.97,0.22,2.95c0.02,0.21,0.04,0.42,0.07,0.63c0.05,0.48,0.12,0.95,0.18,1.43l0.57-0.57
		c-0.32-2.65-0.5-5.34-0.5-8.08c0-36.79,29.82-66.61,66.61-66.61c18.1,0,34.5,7.23,46.5,18.94l0.44-0.47
		c-0.47-0.46-0.95-0.92-1.43-1.37C545.51,345.39,545.35,345.23,545.18,345.08z"/>
	<path class="st2" d="M391.15,426.16c-2.8-9.86-4.33-20.25-4.33-31.01c0-7.76,0.78-15.33,2.27-22.65
		c-1.49,7.33-2.28,14.91-2.28,22.67c0,10.47,1.46,20.9,4.33,31.02c1.29,4.54,2.84,9.65,5.07,14.5l0.01-0.01
		C394.08,436.05,392.55,431.12,391.15,426.16z"/>
	<path class="st1" d="M542.77,343.01c0.16,0.13,0.31,0.26,0.46,0.39C543.07,343.27,542.92,343.14,542.77,343.01z"/>
	<path class="st1" d="M507.99,461.83c-0.69,0.08-1.38,0.15-2.07,0.21C506.61,461.97,507.3,461.91,507.99,461.83z"/>
	<path class="st1" d="M494.1,462.01c-0.85-0.08-1.68-0.17-2.52-0.28C492.42,461.84,493.25,461.93,494.1,462.01z"/>
	<path class="st1" d="M532.73,453.89c-0.58,0.32-1.16,0.62-1.74,0.92C531.57,454.51,532.15,454.21,532.73,453.89z"/>
	<path class="st1" d="M515.5,460.52c-2.21,0.52-4.46,0.92-6.75,1.21C511.04,461.44,513.29,461.03,515.5,460.52z"/>
	<path class="st1" d="M545.18,345.08c0.17,0.15,0.33,0.3,0.49,0.45C545.51,345.39,545.35,345.23,545.18,345.08z"/>
	<path class="st1" d="M576.74,391.38c0.06,1.21,0.09,2.43,0.09,3.66c0,42.27-34.39,76.67-76.66,76.67
		c-16.48,0-31.75-5.24-44.26-14.13l-31.31,31.53c2.95,4.8,5.99,9.73,9.1,14.73c9.14,14.71,18.76,29.99,27.76,44.16
		c-2.18-3.43-4.39-6.92-6.62-10.46c37.88-11.31,124.51-47.31,158.62-145.99c0.04,1.2,0.06,2.4,0.06,3.61
		c0,10.76-1.53,21.15-4.33,31.01c-1.72,6.07-3.61,12.1-6.58,17.55c-10.32,18.89-31.66,53.47-52.21,86.09
		c20.55-32.61,41.9-67.19,52.22-86.09c2.97-5.45,4.86-11.48,6.58-17.55c2.8-9.86,4.33-20.25,4.33-31.01c0-4.74-0.29-9.4-0.86-13.99
		c-0.3-2.41-0.67-4.8-1.12-7.17c-0.02-0.12-0.04-0.23-0.07-0.35c-0.19-1.01-0.4-2.01-0.62-3.01c-0.04-0.2-0.08-0.39-0.13-0.59
		c-0.24-1.08-0.5-2.16-0.78-3.23c-0.08-0.33-0.18-0.66-0.27-0.99c-0.18-0.68-0.37-1.36-0.56-2.04c-0.16-0.56-0.33-1.11-0.5-1.66
		c-0.13-0.42-0.26-0.84-0.39-1.25c-0.17-0.52-0.33-1.05-0.5-1.56C598.32,369.26,586.75,380.97,576.74,391.38z"/>
	<path class="st1" d="M518.13,459.85c-0.65,0.18-1.31,0.35-1.97,0.52C516.83,460.2,517.48,460.03,518.13,459.85z"/>
	<path class="st1" d="M491.03,461.66c-0.82-0.11-1.63-0.24-2.44-0.38C489.4,461.42,490.21,461.55,491.03,461.66z"/>
	<path class="st1" d="M540.25,341.04c0.14,0.11,0.29,0.22,0.43,0.33C540.54,341.26,540.39,341.15,540.25,341.04z"/>
	<path class="st1" d="M461.5,548.07c0.55,0.86,1.09,1.71,1.63,2.57C462.59,549.78,462.05,548.93,461.5,548.07z"/>
	<path class="st1" d="M532.15,335.87c0.09,0.05,0.17,0.1,0.26,0.14C532.32,335.97,532.24,335.92,532.15,335.87z"/>
	<path class="st1" d="M462.63,450.81l-0.02,0.02c2.34,1.58,4.78,2.99,7.32,4.27C467.4,453.83,464.96,452.39,462.63,450.81z"/>
	<path class="st1" d="M488.05,461.18c-0.82-0.15-1.64-0.31-2.46-0.49C486.4,460.87,487.22,461.03,488.05,461.18z"/>
	<path class="st1" d="M526.33,333.07c0.02,0.01,0.03,0.02,0.05,0.02C526.37,333.09,526.35,333.08,526.33,333.07z"/>
	<path class="st1" d="M433.31,402.26c-0.02-0.21-0.04-0.42-0.07-0.63C433.26,401.84,433.29,402.05,433.31,402.26z"/>
	<path class="st1" d="M433.02,398.68c-0.01-0.16-0.01-0.32-0.02-0.48C433.01,398.36,433.01,398.52,433.02,398.68z"/>
	<path class="st1" d="M534.94,337.47c0.11,0.07,0.22,0.14,0.33,0.2C535.16,337.61,535.05,337.54,534.94,337.47z"/>
	<path class="st1" d="M537.64,339.2c0.13,0.09,0.26,0.18,0.39,0.27C537.9,339.37,537.77,339.28,537.64,339.2z"/>
	<path class="st1" d="M472.17,456.18c-0.71-0.32-1.41-0.66-2.1-1.01C470.76,455.52,471.46,455.86,472.17,456.18z"/>
	<path class="st1" d="M474.71,457.29c-0.71-0.29-1.41-0.6-2.1-0.91C473.3,456.7,474,457,474.71,457.29z"/>
	<path class="st1" d="M474.85,457.35c3.33,1.35,6.79,2.45,10.36,3.26c-2.75-0.63-5.44-1.41-8.05-2.36
		C476.38,457.96,475.61,457.66,474.85,457.35z"/>
	<path class="st1" d="M494.44,462.03c1.89,0.16,3.8,0.26,5.73,0.26c0.81,0,1.61-0.03,2.41-0.06c-0.8,0.03-1.6,0.05-2.41,0.05
		C498.24,462.28,496.33,462.19,494.44,462.03z"/>
	<path class="st1" d="M391.15,426.16c1.41,4.96,2.94,9.89,5.07,14.51l29.14-28.91c-1.2-5.38-1.86-10.97-1.86-16.71
		c0-42.27,34.39-76.66,76.67-76.66c20.73,0,39.55,8.28,53.36,21.7l15.5-16.47l-3.86-4.37c-3.19-3.61-3.99-8.79-2.04-13.2
		c0.59-1.32,1.39-2.5,2.36-3.51c-8.82-6.23-18.57-11.24-29.01-14.76c0,0,0,0,0,0c-2.49-0.84-5.02-1.6-7.59-2.27
		c-0.38-0.1-0.77-0.2-1.15-0.29c-1-0.25-2.01-0.49-3.03-0.71c-0.67-0.15-1.35-0.3-2.03-0.43c-0.57-0.12-1.15-0.22-1.72-0.33
		c-0.75-0.14-1.51-0.27-2.27-0.4c-0.45-0.07-0.91-0.16-1.36-0.22c-1.12-0.17-2.24-0.32-3.37-0.46c-0.42-0.05-0.84-0.1-1.26-0.14
		c-1.08-0.12-2.16-0.23-3.25-0.31c-0.18-0.01-0.36-0.03-0.54-0.05c-1.26-0.1-2.53-0.17-3.81-0.22c-0.34-0.01-0.68-0.03-1.01-0.04
		c-1.29-0.04-2.59-0.07-3.89-0.07c-0.01,0-0.03,0-0.04,0c-54.84,0-100.59,38.95-111.08,90.7c-1.48,7.32-2.27,14.89-2.27,22.65
		C386.82,405.91,388.35,416.3,391.15,426.16z"/>
	<path class="st1" d="M505.08,462.1c-0.71,0.05-1.43,0.1-2.14,0.13C503.65,462.19,504.36,462.15,505.08,462.1z"/>
	<path class="st1" d="M548.12,442.18c-0.35,0.35-0.71,0.7-1.06,1.05C547.41,442.89,547.77,442.54,548.12,442.18z"/>
	<path class="st1" d="M543.58,446.39c-0.38,0.32-0.76,0.64-1.15,0.96C542.81,447.03,543.2,446.71,543.58,446.39z"/>
	<path class="st1" d="M529.28,334.41c0.06,0.03,0.11,0.06,0.17,0.08C529.39,334.46,529.34,334.43,529.28,334.41z"/>
	<path class="st1" d="M546.2,444.04c-0.56,0.53-1.13,1.04-1.71,1.55C545.07,445.09,545.64,444.57,546.2,444.04z"/>
	<path class="st1" d="M554.41,434.79c-0.28,0.38-0.57,0.76-0.86,1.14C553.84,435.55,554.13,435.17,554.41,434.79z"/>
	<path class="st1" d="M552.74,436.96c-0.46,0.57-0.92,1.14-1.4,1.7C551.81,438.1,552.28,437.53,552.74,436.96z"/>
	<path class="st1" d="M550.53,439.59c-0.33,0.37-0.65,0.74-0.99,1.1C549.87,440.33,550.2,439.96,550.53,439.59z"/>
	<path class="st1" d="M527.69,456.4c-2.02,0.91-4.1,1.72-6.22,2.43C523.6,458.12,525.67,457.31,527.69,456.4z"/>
	<path class="st1" d="M520.89,459.03c-0.64,0.21-1.29,0.4-1.94,0.59C519.6,459.43,520.25,459.23,520.89,459.03z"/>
	<path class="st1" d="M556.41,431.9c-0.25,0.38-0.5,0.77-0.76,1.14C555.9,432.67,556.16,432.29,556.41,431.9z"/>
	<path class="st1" d="M530.2,455.21c-0.58,0.29-1.16,0.57-1.74,0.84C529.04,455.78,529.63,455.5,530.2,455.21z"/>
	<path class="st1" d="M541.13,448.37c-0.5,0.38-1,0.76-1.51,1.13C540.13,449.12,540.63,448.75,541.13,448.37z"/>
	<path class="st1" d="M536.61,451.55c-1.19,0.77-2.41,1.51-3.65,2.2C534.2,453.06,535.42,452.32,536.61,451.55z"/>
	<path class="st1" d="M538.76,450.1c-0.52,0.36-1.03,0.72-1.56,1.07C537.73,450.82,538.24,450.46,538.76,450.1z"/>
	<path class="st1" d="M566.71,404.8c-0.04,0.25-0.07,0.51-0.11,0.76C566.63,405.3,566.67,405.05,566.71,404.8z"/>
	<path class="st1" d="M565.38,411.53c-0.08,0.32-0.17,0.64-0.26,0.97C565.2,412.17,565.29,411.85,565.38,411.53z"/>
	<path class="st1" d="M566.15,408.06c-0.06,0.33-0.13,0.65-0.2,0.98C566.02,408.71,566.08,408.39,566.15,408.06z"/>
	<path class="st1" d="M567.1,401.61c-0.03,0.28-0.06,0.56-0.09,0.83C567.04,402.16,567.07,401.89,567.1,401.61z"/>
	<path class="st1" d="M564.59,414.37c-0.1,0.33-0.2,0.67-0.3,1C564.39,415.03,564.49,414.7,564.59,414.37z"/>
	<path class="st1" d="M559.58,426.56c-0.21,0.39-0.42,0.77-0.63,1.15C559.16,427.33,559.37,426.94,559.58,426.56z"/>
	<path class="st1" d="M558.13,429.14c-0.32,0.54-0.64,1.07-0.97,1.59C557.49,430.2,557.81,429.67,558.13,429.14z"/>
	<path class="st1" d="M562.28,420.84c-0.16,0.38-0.32,0.75-0.49,1.12C561.96,421.59,562.13,421.22,562.28,420.84z"/>
	<path class="st1" d="M561.12,423.45c-0.17,0.36-0.34,0.73-0.51,1.09C560.79,424.18,560.95,423.82,561.12,423.45z"/>
	<path class="st1" d="M563.53,417.61c-0.13,0.37-0.27,0.73-0.4,1.1C563.26,418.34,563.4,417.97,563.53,417.61z"/>
	<path class="st0" d="M602.6,443.71c2.97-5.45,4.86-11.48,6.58-17.55c2.8-9.86,4.33-20.25,4.33-31.01c0-1.21-0.02-2.41-0.06-3.61
		c-34.11,98.68-120.74,134.68-158.62,145.99c2.23,3.53,4.45,7.03,6.62,10.46c0.02,0.03,0.03,0.05,0.05,0.08
		c0.55,0.86,1.09,1.71,1.63,2.57c20.32,32,37.03,57.78,37.03,57.78s24.49-37.77,50.22-78.62
		C570.94,497.18,592.28,462.6,602.6,443.71z"/>
	<path class="st0" d="M423.51,395.04c0,5.74,0.65,11.33,1.86,16.71l8.13-8.06c-0.06-0.48-0.13-0.95-0.18-1.43
		c-0.02-0.21-0.04-0.42-0.07-0.63c-0.09-0.98-0.17-1.96-0.22-2.95c-0.01-0.16-0.01-0.32-0.02-0.48c-0.05-1.05-0.08-2.1-0.08-3.16
		c0-37.14,30.11-67.25,67.25-67.25c9.28,0,18.12,1.88,26.17,5.28c0.02,0.01,0.03,0.02,0.05,0.02c0.98,0.41,1.94,0.85,2.9,1.31
		c0.06,0.03,0.11,0.06,0.17,0.08c0.91,0.44,1.81,0.9,2.7,1.38c0.09,0.05,0.17,0.1,0.26,0.14c0.85,0.47,1.7,0.95,2.53,1.45
		c0.11,0.07,0.22,0.14,0.33,0.2c0.8,0.49,1.59,1,2.37,1.52c0.13,0.09,0.26,0.18,0.39,0.27c0.75,0.51,1.49,1.04,2.22,1.58
		c0.14,0.11,0.29,0.22,0.43,0.33c0.71,0.53,1.4,1.08,2.09,1.64c0.16,0.13,0.31,0.26,0.46,0.39c0.66,0.55,1.31,1.11,1.95,1.69
		c0.17,0.15,0.33,0.3,0.49,0.45c0.49,0.45,0.96,0.9,1.43,1.37l6.42-6.82c-13.81-13.41-32.63-21.7-53.36-21.7
		C457.9,318.38,423.51,352.77,423.51,395.04z"/>
	<path class="st0" d="M576.83,395.04c0-1.23-0.04-2.45-0.09-3.66c-2.68,2.79-5.26,5.49-7.64,8.03l-1.01,1.08
		c-0.33,0.35-0.66,0.7-0.99,1.05c0,0.02,0,0.04,0,0.07c-0.03,0.28-0.06,0.56-0.09,0.83c-0.09,0.79-0.19,1.57-0.3,2.35
		c-0.04,0.25-0.07,0.51-0.11,0.76c-0.13,0.84-0.28,1.67-0.45,2.5c-0.06,0.33-0.13,0.65-0.2,0.98c-0.18,0.84-0.37,1.67-0.57,2.49
		c-0.08,0.32-0.17,0.64-0.26,0.97c-0.17,0.63-0.35,1.25-0.53,1.87c-0.1,0.33-0.2,0.67-0.3,1c-0.24,0.75-0.49,1.5-0.76,2.24
		c-0.13,0.37-0.27,0.73-0.4,1.1c-0.27,0.72-0.55,1.43-0.84,2.14c-0.16,0.38-0.32,0.75-0.49,1.12c-0.22,0.5-0.44,1-0.67,1.49
		c-0.17,0.36-0.34,0.73-0.51,1.09c-0.33,0.68-0.68,1.35-1.03,2.01c-0.21,0.39-0.42,0.77-0.63,1.15c-0.27,0.48-0.54,0.95-0.82,1.42
		c-0.32,0.54-0.64,1.07-0.97,1.59c-0.25,0.39-0.5,0.79-0.75,1.18c-0.25,0.38-0.5,0.77-0.76,1.14c-0.4,0.59-0.82,1.17-1.24,1.74
		c-0.28,0.38-0.57,0.76-0.86,1.14c-0.27,0.35-0.54,0.69-0.81,1.03c-0.46,0.57-0.92,1.14-1.4,1.7c-0.27,0.31-0.54,0.63-0.81,0.94
		c-0.33,0.37-0.65,0.74-0.99,1.1c-0.47,0.5-0.94,1-1.42,1.49c-0.35,0.36-0.71,0.7-1.06,1.05c-0.28,0.27-0.57,0.54-0.85,0.81
		c-0.56,0.53-1.13,1.04-1.71,1.55c-0.3,0.27-0.61,0.53-0.92,0.79c-0.38,0.32-0.76,0.64-1.15,0.96c-0.43,0.35-0.86,0.68-1.3,1.02
		c-0.5,0.38-1,0.76-1.51,1.13c-0.28,0.21-0.57,0.41-0.86,0.61c-0.52,0.36-1.03,0.72-1.56,1.07c-0.19,0.13-0.39,0.25-0.59,0.38
		c-1.19,0.77-2.41,1.51-3.65,2.2c-0.08,0.04-0.16,0.09-0.24,0.14c-0.58,0.32-1.16,0.62-1.74,0.92c-0.26,0.13-0.52,0.27-0.78,0.4
		c-0.58,0.29-1.16,0.57-1.74,0.84c-0.25,0.12-0.51,0.23-0.77,0.35c-2.02,0.91-4.1,1.72-6.22,2.43c-0.2,0.07-0.39,0.13-0.58,0.2
		c-0.64,0.21-1.29,0.4-1.94,0.59c-0.27,0.08-0.54,0.16-0.81,0.23c-0.65,0.18-1.31,0.35-1.97,0.52c-0.22,0.05-0.44,0.1-0.66,0.15
		c-2.21,0.52-4.46,0.92-6.75,1.21c-0.25,0.03-0.51,0.07-0.76,0.1c-0.69,0.08-1.38,0.15-2.07,0.21c-0.28,0.02-0.56,0.04-0.84,0.06
		c-0.71,0.05-1.43,0.1-2.14,0.13c-0.12,0-0.24,0-0.36,0.01c-0.8,0.03-1.6,0.06-2.41,0.06c-1.93,0-3.84-0.1-5.73-0.26
		c-0.11-0.01-0.23-0.02-0.34-0.03c-0.85-0.08-1.68-0.17-2.52-0.28c-0.18-0.02-0.37-0.05-0.55-0.07c-0.82-0.11-1.63-0.24-2.44-0.38
		c-0.18-0.03-0.36-0.06-0.54-0.1c-0.82-0.15-1.64-0.31-2.46-0.49c-0.13-0.03-0.25-0.06-0.38-0.09c-3.57-0.81-7.03-1.9-10.36-3.26
		c-0.05-0.02-0.09-0.04-0.14-0.05c-0.71-0.29-1.41-0.6-2.1-0.91c-0.15-0.07-0.29-0.13-0.44-0.2c-0.71-0.32-1.41-0.66-2.1-1.01
		c-0.05-0.02-0.09-0.05-0.14-0.07c-2.53-1.28-4.98-2.69-7.32-4.27l-6.7,6.74c12.51,8.88,27.78,14.13,44.26,14.13
		C542.44,471.71,576.83,437.31,576.83,395.04z"/>
	<path class="st1" d="M622.87,354.37l2.58-45.62c0.01-1.46-1.18-2.65-2.64-2.63l-43.35,0.46l-3.5,0.04
		c-2.24,0.02-3.41,2.66-1.93,4.34l9.75,11.02l-66.68,70.99l-30.3-28.47l0.73,15.8l1.39,30.21l0,0l28.8,29.5
		c29.42-31.54,60.15-64.27,89.58-95.8c4.32,4.62,6.72,7.32,11.05,11.93C619.98,357.85,622.84,356.72,622.87,354.37z"/>
	<polygon class="st0" points="487.55,380.3 486.82,364.5 374.64,475.79 397.07,503.01 488.94,410.51 488.94,410.51 	"/>
</g>
</svg>
